<mxfile host="app.diagrams.net" agent="Mozilla/5.0 (Windows NT 10.0; Win64; x64; rv:137.0) Gecko/20100101 Firefox/137.0" version="26.2.14" pages="2">
  <diagram name="Page-1" id="MFZSML2b7RBqSPVqTth8">
    <mxGraphModel dx="1653" dy="1107" grid="1" gridSize="10" guides="1" tooltips="1" connect="1" arrows="1" fold="1" page="1" pageScale="1" pageWidth="850" pageHeight="1100" math="0" shadow="0">
      <root>
        <mxCell id="0" />
        <mxCell id="1" parent="0" />
        <mxCell id="lrz9_lm1FMnTXzJSDYd8-1" style="edgeStyle=orthogonalEdgeStyle;rounded=0;orthogonalLoop=1;jettySize=auto;html=1;entryX=0.5;entryY=0;entryDx=0;entryDy=0;" parent="1" source="lrz9_lm1FMnTXzJSDYd8-3" target="lrz9_lm1FMnTXzJSDYd8-9" edge="1">
          <mxGeometry relative="1" as="geometry" />
        </mxCell>
        <mxCell id="lrz9_lm1FMnTXzJSDYd8-2" value="&lt;font style=&quot;font-size: 15px;&quot;&gt;Client chooses &quot;My bookings&quot;&lt;/font&gt;" style="edgeLabel;html=1;align=center;verticalAlign=middle;resizable=0;points=[];" parent="lrz9_lm1FMnTXzJSDYd8-1" vertex="1" connectable="0">
          <mxGeometry x="-0.0522" y="2" relative="1" as="geometry">
            <mxPoint as="offset" />
          </mxGeometry>
        </mxCell>
        <mxCell id="B3FGxuR_pb9LvvFD6uUK-26" style="edgeStyle=orthogonalEdgeStyle;rounded=0;orthogonalLoop=1;jettySize=auto;html=1;exitX=1;exitY=0.5;exitDx=0;exitDy=0;entryX=0;entryY=0.5;entryDx=0;entryDy=0;" edge="1" parent="1" source="lrz9_lm1FMnTXzJSDYd8-3" target="B3FGxuR_pb9LvvFD6uUK-17">
          <mxGeometry relative="1" as="geometry" />
        </mxCell>
        <mxCell id="B3FGxuR_pb9LvvFD6uUK-40" value="&lt;font style=&quot;font-size: 15px;&quot;&gt;User chooses &quot;My bookings&quot; but has no existing orders&lt;/font&gt;" style="edgeLabel;html=1;align=center;verticalAlign=middle;resizable=0;points=[];" vertex="1" connectable="0" parent="B3FGxuR_pb9LvvFD6uUK-26">
          <mxGeometry x="0.4107" y="-1" relative="1" as="geometry">
            <mxPoint x="-83" y="10" as="offset" />
          </mxGeometry>
        </mxCell>
        <mxCell id="lrz9_lm1FMnTXzJSDYd8-3" value="" style="rounded=0;whiteSpace=wrap;html=1;" parent="1" vertex="1">
          <mxGeometry x="110" y="1020" width="480" height="297" as="geometry" />
        </mxCell>
        <mxCell id="lrz9_lm1FMnTXzJSDYd8-4" value="&lt;font style=&quot;font-size: 20px;&quot;&gt;Dashboard&lt;/font&gt;" style="text;html=1;align=center;verticalAlign=middle;whiteSpace=wrap;rounded=0;" parent="1" vertex="1">
          <mxGeometry x="130" y="990" width="60" height="30" as="geometry" />
        </mxCell>
        <mxCell id="pTFOjj_SIschiUt4O7y0-25" style="edgeStyle=orthogonalEdgeStyle;rounded=0;orthogonalLoop=1;jettySize=auto;html=1;entryX=0;entryY=0.5;entryDx=0;entryDy=0;exitX=1;exitY=0.5;exitDx=0;exitDy=0;" parent="1" source="lrz9_lm1FMnTXzJSDYd8-9" target="pTFOjj_SIschiUt4O7y0-21" edge="1">
          <mxGeometry relative="1" as="geometry">
            <mxPoint x="1540" y="1520" as="targetPoint" />
            <Array as="points">
              <mxPoint x="760" y="1584" />
              <mxPoint x="760" y="1584" />
            </Array>
          </mxGeometry>
        </mxCell>
        <mxCell id="B3FGxuR_pb9LvvFD6uUK-37" value="&lt;div style=&quot;background-color: transparent;&quot;&gt;&lt;font style=&quot;background-color: transparent; font-size: 15px;&quot;&gt;User chooses a service to view the details of&lt;/font&gt;&lt;/div&gt;&amp;nbsp;" style="edgeLabel;html=1;align=center;verticalAlign=middle;resizable=0;points=[];" vertex="1" connectable="0" parent="pTFOjj_SIschiUt4O7y0-25">
          <mxGeometry x="0.1187" y="3" relative="1" as="geometry">
            <mxPoint x="-21" y="26" as="offset" />
          </mxGeometry>
        </mxCell>
        <mxCell id="lrz9_lm1FMnTXzJSDYd8-9" value="" style="rounded=0;whiteSpace=wrap;html=1;movable=1;resizable=1;rotatable=1;deletable=1;editable=1;locked=0;connectable=1;" parent="1" vertex="1">
          <mxGeometry x="110" y="1435.27" width="480" height="297" as="geometry" />
        </mxCell>
        <mxCell id="lrz9_lm1FMnTXzJSDYd8-13" value="&lt;font style=&quot;font-size: 24px;&quot;&gt;My bookings&lt;/font&gt;" style="text;html=1;align=center;verticalAlign=middle;whiteSpace=wrap;rounded=0;" parent="1" vertex="1">
          <mxGeometry x="275" y="1450.9" width="150" height="30" as="geometry" />
        </mxCell>
        <mxCell id="lrz9_lm1FMnTXzJSDYd8-14" value="&lt;font style=&quot;font-size: 24px;&quot;&gt;Dashboard&lt;/font&gt;" style="text;html=1;align=center;verticalAlign=middle;whiteSpace=wrap;rounded=0;" parent="1" vertex="1">
          <mxGeometry x="285" y="1030" width="130" height="30" as="geometry" />
        </mxCell>
        <mxCell id="pTFOjj_SIschiUt4O7y0-21" value="" style="rounded=0;whiteSpace=wrap;html=1;" parent="1" vertex="1">
          <mxGeometry x="1020" y="1435.27" width="480" height="297" as="geometry" />
        </mxCell>
        <mxCell id="pTFOjj_SIschiUt4O7y0-22" value="&lt;font style=&quot;font-size: 22px;&quot;&gt;Service details&lt;/font&gt;" style="text;html=1;align=left;verticalAlign=middle;whiteSpace=wrap;rounded=0;" parent="1" vertex="1">
          <mxGeometry x="1020" y="1402.77" width="200" height="35" as="geometry" />
        </mxCell>
        <mxCell id="pTFOjj_SIschiUt4O7y0-23" value="&lt;font style=&quot;font-size: 24px;&quot;&gt;Service Name&lt;/font&gt;" style="text;html=1;align=center;verticalAlign=middle;whiteSpace=wrap;rounded=0;" parent="1" vertex="1">
          <mxGeometry x="1070" y="1447.77" width="380" height="30" as="geometry" />
        </mxCell>
        <mxCell id="B3FGxuR_pb9LvvFD6uUK-9" value="Leave a review" style="rounded=0;whiteSpace=wrap;html=1;" vertex="1" parent="1">
          <mxGeometry x="1158.75" y="1677.77" width="202.5" height="32.5" as="geometry" />
        </mxCell>
        <mxCell id="B3FGxuR_pb9LvvFD6uUK-17" value="" style="rounded=0;whiteSpace=wrap;html=1;" vertex="1" parent="1">
          <mxGeometry x="1020" y="1020.5" width="480" height="297" as="geometry" />
        </mxCell>
        <mxCell id="B3FGxuR_pb9LvvFD6uUK-18" value="&lt;font style=&quot;font-size: 22px;&quot;&gt;My bookings (empty)&lt;/font&gt;" style="text;html=1;align=center;verticalAlign=middle;whiteSpace=wrap;rounded=0;" vertex="1" parent="1">
          <mxGeometry x="1020" y="990" width="220" height="30" as="geometry" />
        </mxCell>
        <mxCell id="B3FGxuR_pb9LvvFD6uUK-25" value="&lt;font style=&quot;font-size: 23px;&quot;&gt;My bookings&lt;/font&gt;" style="text;html=1;align=center;verticalAlign=middle;whiteSpace=wrap;rounded=0;flipH=1;" vertex="1" parent="1">
          <mxGeometry x="1185" y="1040" width="150" height="30" as="geometry" />
        </mxCell>
        <mxCell id="B3FGxuR_pb9LvvFD6uUK-33" value="" style="group" vertex="1" connectable="0" parent="1">
          <mxGeometry x="140" y="1505.27" width="420" height="190" as="geometry" />
        </mxCell>
        <mxCell id="lrz9_lm1FMnTXzJSDYd8-45" value="Service1: Date, business, price" style="rounded=0;whiteSpace=wrap;html=1;" parent="B3FGxuR_pb9LvvFD6uUK-33" vertex="1">
          <mxGeometry width="272.11267605633805" height="37.37704918032787" as="geometry" />
        </mxCell>
        <mxCell id="lrz9_lm1FMnTXzJSDYd8-46" value="Service2: Date, business, price" style="rounded=0;whiteSpace=wrap;html=1;" parent="B3FGxuR_pb9LvvFD6uUK-33" vertex="1">
          <mxGeometry y="51.39344262295082" width="272.11267605633805" height="37.37704918032787" as="geometry" />
        </mxCell>
        <mxCell id="lrz9_lm1FMnTXzJSDYd8-47" value="Service3: Date, business, price" style="rounded=0;whiteSpace=wrap;html=1;" parent="B3FGxuR_pb9LvvFD6uUK-33" vertex="1">
          <mxGeometry y="101.22950819672131" width="272.11267605633805" height="37.37704918032787" as="geometry" />
        </mxCell>
        <mxCell id="lrz9_lm1FMnTXzJSDYd8-48" value="Service4: Date, business, price" style="rounded=0;whiteSpace=wrap;html=1;" parent="B3FGxuR_pb9LvvFD6uUK-33" vertex="1">
          <mxGeometry y="151.06557377049182" width="272.11267605633805" height="37.37704918032787" as="geometry" />
        </mxCell>
        <mxCell id="pTFOjj_SIschiUt4O7y0-1" value="Request refund" style="rounded=0;whiteSpace=wrap;html=1;" parent="B3FGxuR_pb9LvvFD6uUK-33" vertex="1">
          <mxGeometry x="278.0281690140846" width="141.97183098591552" height="38.934426229508205" as="geometry" />
        </mxCell>
        <mxCell id="pTFOjj_SIschiUt4O7y0-2" value="Can&#39;t refund " style="rounded=0;whiteSpace=wrap;html=1;" parent="B3FGxuR_pb9LvvFD6uUK-33" vertex="1">
          <mxGeometry x="278.0281690140846" y="51.39344262295082" width="141.97183098591552" height="38.934426229508205" as="geometry" />
        </mxCell>
        <mxCell id="pTFOjj_SIschiUt4O7y0-3" value="Request refund" style="rounded=0;whiteSpace=wrap;html=1;" parent="B3FGxuR_pb9LvvFD6uUK-33" vertex="1">
          <mxGeometry x="278.0281690140846" y="101.22950819672131" width="141.97183098591552" height="38.934426229508205" as="geometry" />
        </mxCell>
        <mxCell id="pTFOjj_SIschiUt4O7y0-4" value="Request refund" style="rounded=0;whiteSpace=wrap;html=1;" parent="B3FGxuR_pb9LvvFD6uUK-33" vertex="1">
          <mxGeometry x="278.0281690140846" y="151.06557377049182" width="141.97183098591552" height="38.934426229508205" as="geometry" />
        </mxCell>
        <mxCell id="B3FGxuR_pb9LvvFD6uUK-34" value="" style="group" vertex="1" connectable="0" parent="1">
          <mxGeometry x="220" y="1080" width="260" height="200" as="geometry" />
        </mxCell>
        <mxCell id="lrz9_lm1FMnTXzJSDYd8-5" value="&lt;font style=&quot;font-size: 18px;&quot;&gt;Find service &lt;/font&gt;" style="rounded=0;whiteSpace=wrap;html=1;" parent="B3FGxuR_pb9LvvFD6uUK-34" vertex="1">
          <mxGeometry y="51.28205128205128" width="260" height="41.02564102564102" as="geometry" />
        </mxCell>
        <mxCell id="lrz9_lm1FMnTXzJSDYd8-6" value="&lt;font style=&quot;font-size: 18px;&quot;&gt;Search on map&lt;/font&gt;" style="rounded=0;whiteSpace=wrap;html=1;" parent="B3FGxuR_pb9LvvFD6uUK-34" vertex="1">
          <mxGeometry width="260" height="38.46153846153846" as="geometry" />
        </mxCell>
        <mxCell id="lrz9_lm1FMnTXzJSDYd8-7" value="&lt;font style=&quot;font-size: 18px;&quot;&gt;My bookings&lt;/font&gt;" style="rounded=0;whiteSpace=wrap;html=1;" parent="B3FGxuR_pb9LvvFD6uUK-34" vertex="1">
          <mxGeometry y="107.69230769230768" width="260" height="41.02564102564102" as="geometry" />
        </mxCell>
        <mxCell id="lrz9_lm1FMnTXzJSDYd8-8" value="&lt;font style=&quot;font-size: 18px;&quot;&gt;...&lt;/font&gt;" style="rounded=0;whiteSpace=wrap;html=1;" parent="B3FGxuR_pb9LvvFD6uUK-34" vertex="1">
          <mxGeometry y="158.97435897435895" width="260" height="41.02564102564102" as="geometry" />
        </mxCell>
        <mxCell id="B3FGxuR_pb9LvvFD6uUK-35" value="" style="group" vertex="1" connectable="0" parent="1">
          <mxGeometry x="1080" y="1100" width="360" height="190" as="geometry" />
        </mxCell>
        <mxCell id="B3FGxuR_pb9LvvFD6uUK-27" value="&lt;font style=&quot;font-size: 16px;&quot;&gt;&lt;em&gt;&quot;You have not ordered any services yet.&quot;&lt;/em&gt;&lt;/font&gt;" style="text;html=1;align=center;verticalAlign=middle;whiteSpace=wrap;rounded=0;flipH=1;" vertex="1" parent="B3FGxuR_pb9LvvFD6uUK-35">
          <mxGeometry width="359.9999999999999" height="42.22222222222222" as="geometry" />
        </mxCell>
        <mxCell id="B3FGxuR_pb9LvvFD6uUK-31" value="Explore services" style="rounded=0;whiteSpace=wrap;html=1;" vertex="1" parent="B3FGxuR_pb9LvvFD6uUK-35">
          <mxGeometry x="9.230769230769232" y="84.44444444444444" width="341.5384615384615" height="42.22222222222222" as="geometry" />
        </mxCell>
        <mxCell id="B3FGxuR_pb9LvvFD6uUK-32" value="Go back" style="rounded=0;whiteSpace=wrap;html=1;" vertex="1" parent="B3FGxuR_pb9LvvFD6uUK-35">
          <mxGeometry x="9.230769230769232" y="147.7777777777778" width="341.5384615384615" height="42.22222222222222" as="geometry" />
        </mxCell>
        <mxCell id="B3FGxuR_pb9LvvFD6uUK-36" value="" style="group" vertex="1" connectable="0" parent="1">
          <mxGeometry x="1040" y="1487.77" width="290" height="175" as="geometry" />
        </mxCell>
        <mxCell id="pTFOjj_SIschiUt4O7y0-6" value="&lt;b&gt;Status: pending | completed | cancelled | refunded&lt;/b&gt;" style="text;html=1;align=left;verticalAlign=middle;whiteSpace=wrap;rounded=0;" parent="B3FGxuR_pb9LvvFD6uUK-36" vertex="1">
          <mxGeometry y="130.5" width="290" height="20" as="geometry" />
        </mxCell>
        <mxCell id="B3FGxuR_pb9LvvFD6uUK-2" value="&lt;b&gt;Date: &lt;/b&gt;dd:mm:yy hh:mm" style="text;html=1;align=left;verticalAlign=middle;whiteSpace=wrap;rounded=0;" vertex="1" parent="B3FGxuR_pb9LvvFD6uUK-36">
          <mxGeometry y="25.5" width="200" height="30" as="geometry" />
        </mxCell>
        <mxCell id="B3FGxuR_pb9LvvFD6uUK-3" value="&lt;b&gt;Description: &lt;/b&gt;Lorem ipsum dolor" style="text;html=1;align=left;verticalAlign=middle;whiteSpace=wrap;rounded=0;" vertex="1" parent="B3FGxuR_pb9LvvFD6uUK-36">
          <mxGeometry width="200" height="30" as="geometry" />
        </mxCell>
        <mxCell id="B3FGxuR_pb9LvvFD6uUK-6" value="&lt;b&gt;Address: &lt;/b&gt;Street X/Y, City, Zip code" style="text;html=1;align=left;verticalAlign=middle;whiteSpace=wrap;rounded=0;" vertex="1" parent="B3FGxuR_pb9LvvFD6uUK-36">
          <mxGeometry y="50.5" width="200" height="28.75" as="geometry" />
        </mxCell>
        <mxCell id="B3FGxuR_pb9LvvFD6uUK-7" value="&lt;b&gt;Price: &lt;/b&gt;XX $" style="text;html=1;align=left;verticalAlign=middle;whiteSpace=wrap;rounded=0;" vertex="1" parent="B3FGxuR_pb9LvvFD6uUK-36">
          <mxGeometry y="100.5" width="200" height="28.75" as="geometry" />
        </mxCell>
        <mxCell id="B3FGxuR_pb9LvvFD6uUK-14" value="&lt;b&gt;Contact: &lt;/b&gt;service.provider@mail.com" style="text;html=1;align=left;verticalAlign=middle;whiteSpace=wrap;rounded=0;" vertex="1" parent="B3FGxuR_pb9LvvFD6uUK-36">
          <mxGeometry y="75.5" width="220" height="28.75" as="geometry" />
        </mxCell>
        <mxCell id="B3FGxuR_pb9LvvFD6uUK-15" value="&lt;b&gt;Notes: &lt;/b&gt;Lorem ipsum dolor" style="text;html=1;align=left;verticalAlign=middle;whiteSpace=wrap;rounded=0;" vertex="1" parent="B3FGxuR_pb9LvvFD6uUK-36">
          <mxGeometry y="155" width="290" height="20" as="geometry" />
        </mxCell>
        <mxCell id="B3FGxuR_pb9LvvFD6uUK-38" value="&lt;font style=&quot;font-size: 22px;&quot;&gt;My bookings&lt;/font&gt;" style="text;html=1;align=center;verticalAlign=middle;whiteSpace=wrap;rounded=0;" vertex="1" parent="1">
          <mxGeometry x="110" y="1402.77" width="130" height="30" as="geometry" />
        </mxCell>
      </root>
    </mxGraphModel>
  </diagram>
  <diagram id="MlURs_UmKjBnsXkqtZhJ" name="Page-2">
    <mxGraphModel dx="1426" dy="770" grid="1" gridSize="10" guides="1" tooltips="1" connect="1" arrows="1" fold="1" page="1" pageScale="1" pageWidth="850" pageHeight="1100" math="0" shadow="0">
      <root>
        <mxCell id="0" />
        <mxCell id="1" parent="0" />
      </root>
    </mxGraphModel>
  </diagram>
</mxfile>
